<svg xmlns="http://www.w3.org/2000/svg" xmlns:xlink="http://www.w3.org/1999/xlink" width="261.78" height="94" viewBox="0 0 261.78 94">
  <defs>
    <filter id="Rectangle_1073" x="10" y="10" width="241" height="82" filterUnits="userSpaceOnUse">
      <feOffset dx="4" dy="4" input="SourceAlpha"/>
      <feGaussianBlur stdDeviation="3" result="blur"/>
      <feFlood flood-opacity="0.031"/>
      <feComposite operator="in" in2="blur"/>
      <feComposite in="SourceGraphic"/>
    </filter>
  </defs>
  <g id="Group_1449" data-name="Group 1449" transform="translate(457 -234.996)">
    <g transform="matrix(1, 0, 0, 1, -457, 235)" filter="url(#Rectangle_1073)">
      <g id="Rectangle_1073-2" data-name="Rectangle 1073" transform="translate(15 15)" fill="rgba(255,92,99,0.16)" stroke="#ff5c63" stroke-width="2">
        <rect width="223" height="64" rx="32" stroke="none"/>
        <rect x="1" y="1" width="221" height="62" rx="31" fill="none"/>
      </g>
    </g>
    <path id="Icon_ionic-ios-arrow-round-back" data-name="Icon ionic-ios-arrow-round-back" d="M20.791,11.51a.919.919,0,0,0-.007,1.294l4.268,4.282-43.006-.267a.911.911,0,0,0-.907.914.911.911,0,0,0,.907.914l43.006.267L20.777,23.2a.925.925,0,0,0,.007,1.294.91.91,0,0,0,1.287-.007l5.794-5.836h0a1.026,1.026,0,0,0,.19-.288.872.872,0,0,0,.07-.352.916.916,0,0,0-.26-.64l-5.794-5.836A.9.9,0,0,0,20.791,11.51Z" transform="translate(-223.345 263.744)" fill="#ffa7ab"/>
    <text id="Visit_shop" data-name="Visit shop" transform="translate(-389 286.996)" fill="#ff6f75" font-size="16" font-family="Poppins-Regular, Poppins" letter-spacing="0.2em"><tspan x="0" y="0">VISIT SHOP</tspan></text>
    <g id="Rectangle_1074" data-name="Rectangle 1074" transform="translate(-442 249.996)" fill="none" stroke="#ff5c63" stroke-width="2">
      <rect width="223" height="64" rx="32" stroke="none"/>
      <rect x="1" y="1" width="221" height="62" rx="31" fill="none"/>
    </g>
  </g>
</svg>
