<?xml version="1.0" encoding="utf-8"?>
<!-- Svg Vector Icons : http://www.onlinewebfonts.com/icon -->
<!DOCTYPE svg PUBLIC "-//W3C//DTD SVG 1.1//EN" "http://www.w3.org/Graphics/SVG/1.1/DTD/svg11.dtd">
<svg version="1.1" xmlns="http://www.w3.org/2000/svg" xmlns:xlink="http://www.w3.org/1999/xlink" x="0px" y="0px" viewBox="0 0 1000 1000" enable-background="new 0 0 1000 1000" xml:space="preserve">
<metadata> Svg Vector Icons : http://www.onlinewebfonts.com/icon </metadata>
<g><g transform="translate(0.000000,511.000000) scale(0.100000,-0.100000)"><path d="M1073.2,4982.3c-59.1-10.9-188.1-59-286.5-105c-332.4-159.6-599.2-507.4-662.7-861.7c-15.3-80.9-24.1-514-24.1-1121.9V1903h1377.8h1377.8l185.9,183.7c527.1,522.7,1202.9,800.4,1955.2,800.4c761.1,0,1434.7-275.6,1963.9-802.6L7140,1903h1380h1380l-6.6,1067.3l-6.6,1065.1l-56.9,144.3c-83.1,214.3-161.8,336.8-308.4,481.1c-153.1,150.9-413.3,288.7-616.7,323.7C8736.5,5015.1,1232.9,5013,1073.2,4982.3z"/><path d="M4579,1931.5c-83.1-19.7-148.7-41.5-148.7-48.1c0-6.6,41.5-30.6,89.7-54.7c50.3-21.9,142.2-91.9,205.6-155.3c358.7-360.9,358.7-929.5,0-1290.3c-360.9-358.7-929.5-358.7-1290.3,0c-63.4,63.4-133.4,155.3-155.3,205.6c-24.1,48.1-48.1,89.7-54.7,89.7c-32.8,0-85.3-347.7-85.3-575.2c0-527.1,194.6-979.8,570.8-1340.6c367.4-347.7,778.6-511.8,1288.1-511.8c511.8,0,931.7,168.4,1296.9,522.7c371.8,358.7,562.1,809.2,562.1,1336.2c0,533.6-192.5,984.2-570.8,1347.2c-253.7,240.6-524.9,389.3-855.1,468C5208.9,1977.4,4799.9,1981.8,4579,1931.5z"/><path d="M104.4-1338.1l6.6-2477.9l56.9-144.3c80.9-210,153.1-323.7,295.2-465.8c142.2-142.2,255.9-214.3,465.8-295.3l144.3-56.9l3838.2-6.6c2703.1-4.4,3879.8,0,3980.4,17.5c470.2,78.7,898.9,500.8,982,971c15.3,87.5,24.1,922.9,24.1,2532.6v2401.3H8747.5c-1087,0-1150.4-2.2-1139.5-37.2c4.4-21.9,35-124.7,65.6-227.4c85.3-290.9,109.4-509.6,96.2-881.4c-15.3-487.7-133.4-892.3-369.6-1290.3C6969.4-2020.5,6273.9-2495,5445.1-2637.2c-310.6-52.5-817.9-32.8-1106.6,41.5C3422.1-2355.1,2711.3-1723,2389.8-863.5c-131.2,349.9-157.5,509.6-155.3,984.2c0,419.9,2.2,446.1,67.8,678c37.2,133.4,74.4,262.4,83.1,290.9l15.3,48.1H1250.4H100L104.4-1338.1z"/></g></g>
</svg>