<?xml version="1.0" encoding="utf-8"?>
<!-- Svg Vector Icons : http://www.onlinewebfonts.com/icon -->
<!DOCTYPE svg PUBLIC "-//W3C//DTD SVG 1.1//EN" "http://www.w3.org/Graphics/SVG/1.1/DTD/svg11.dtd">
<svg version="1.1" xmlns="http://www.w3.org/2000/svg" xmlns:xlink="http://www.w3.org/1999/xlink" x="0px" y="0px" viewBox="0 0 1000 1000" enable-background="new 0 0 1000 1000" xml:space="preserve">
<metadata> Svg Vector Icons : http://www.onlinewebfonts.com/icon </metadata>
<g><path d="M10.2,169.1c8.7,0,14.9,0,21.1,0c313.4,0,626.6,0.1,940.2-0.3c14.2,0,18.4,3.5,18.4,18.2c-0.4,209.1-0.4,418.2,0,627.4c0,13.2-4,16.8-16.8,16.8c-315.5-0.4-631.1-0.3-946.5-0.1c-11,0-16.7-1-16.7-15.1c0.6-208.6,0.3-417.2,0.3-625.7C10.2,184.1,10.2,177.8,10.2,169.1z M87.5,212.1c6,6.3,8.7,9.3,11.7,12.1C204.4,321,309.6,417.9,415,514.5c17,15.4,34.1,31,52.9,44.3c21.4,14.9,45,15.1,65.8-1.1c21.9-17,42.8-35.5,63.1-54.2c100.4-91.9,200.7-184,300.8-276.2c4.3-3.9,7.6-8.6,13.4-15.2C635.3,212.1,363.7,212.1,87.5,212.1z M86.4,782.6c1.4,1.9,2.9,3.9,4.6,5.7c272.9,0,545.7,0,818.5,0c1.1-1.6,2-3.2,3-4.8c-5.7-4.4-11.9-8.3-17.2-13.2c-84.2-77.3-168.5-154.2-252.3-232c-10.9-10-17-8.6-26.9,0.6c-21.2,19.4-43.3,38.2-66.1,55.7c-32.3,24.3-66.2,25-98.6,0.6c-23.8-17.9-46.3-37.7-68.5-57.6c-9.5-8.6-15.3-8.5-24.7,0.3c-84.6,78.3-169.6,156.2-254.6,233.8C98.5,776.2,92,779,86.4,782.6z M341.2,500C246.1,412.9,153,327.3,57.3,239.5c0,175.6,0,346.6,0,521.4C153.4,672.7,246.4,587.1,341.2,500z M943.5,245.2c-1.5-0.8-2.9-1.7-4.4-2.5c-93,85.4-185.7,170.9-279.9,257.4c95.1,87.4,188,172.8,284.3,261.1C943.5,585.9,943.5,415.4,943.5,245.2z"/></g>
</svg>