<?xml version="1.0" encoding="utf-8"?>
<!-- Svg Vector Icons : http://www.onlinewebfonts.com/icon -->
<!DOCTYPE svg PUBLIC "-//W3C//DTD SVG 1.1//EN" "http://www.w3.org/Graphics/SVG/1.1/DTD/svg11.dtd">
<svg version="1.1" xmlns="http://www.w3.org/2000/svg" xmlns:xlink="http://www.w3.org/1999/xlink" x="0px" y="0px" viewBox="0 0 1000 1000" enable-background="new 0 0 1000 1000" xml:space="preserve">
<metadata> Svg Vector Icons : http://www.onlinewebfonts.com/icon </metadata>
<g><path d="M553.5,907.6C470.3,858.8,381.8,788.7,291.2,698c-78-78.3-150.1-171.8-202.7-263.2c-27-44-43.8-87.7-57.3-125.1C17.1,270.9,10,234.7,10,202.1c0-17.6,6.3-36,17.8-51.9c10.8-17.8,25.1-35.7,42.6-53.2c16.1-16.1,66.3-60.1,88.9-75.2c2.1-1.4,4.4-2.6,6.9-3.4l19.4-6.6c10.4-3.4,21.8-0.8,29.5,7c2.1,2.2,4.8,4.2,7.7,6.8c5.9,4.9,13.1,10.9,21.5,19.3c17.6,21,33.7,43.3,55.6,76c35.1,51.2,55.5,96.7,64.4,119.3c1.4,3.5,2.1,7.2,2.1,10.8c0,14.2-8.4,23.9-28.6,47.4c-6.6,7.7-17.6,20.5-20,24.5c-6.3,11.1-5,21.9-2.1,41.9c0.7,4.2,1.2,8.6,1.8,13c6.3,27.9,12.1,54.2,39.7,90.2c14.8,22.1,34.6,43.7,55.7,66.7c6.9,7.4,13.9,15,20.8,22.8c22.4,22.3,51.4,49.3,85.2,78.9c33.6,25.8,61.1,38.5,85,38.5c35.6,0,63.1-14.2,85.4-28.2c1.4-1,2.9-1.7,4.5-2.3c5.3-2.1,10.2-4.7,14.6-6.9c10.8-5.7,22.1-11.5,35-11.5c4.6,0,9,1,13,3.1l3.4,1.7c16.1,7.9,58.7,29,117.8,72.5c38.6,29,66.5,52.8,85.1,68.4c6.7,5.6,12.2,10.3,16.5,13.8c7.9,6.3,11.9,16.1,10.5,26c-5.6,45.8-85.4,126.9-86.1,127.6c-12.7,12.8-32.7,30-55.2,39.1c-13.3,6.8-33.7,11.8-49.6,11.8C798.8,989.7,697.2,993.7,553.5,907.6z"/></g>
</svg>